<svg id="Capa_1" data-name="Capa 1" xmlns="http://www.w3.org/2000/svg" xmlns:xlink="http://www.w3.org/1999/xlink" viewBox="0 0 150 150"><defs><style>.cls-1{fill:url(#linear-gradient);}.cls-2{fill:#fff;}</style><linearGradient id="linear-gradient" x1="21.56" y1="22.43" x2="127.05" y2="127.91" gradientUnits="userSpaceOnUse"><stop offset="0" stop-color="#4676ed"/><stop offset="0.19" stop-color="#436de4"/><stop offset="0.49" stop-color="#3c55cd"/><stop offset="0.87" stop-color="#302ea8"/><stop offset="1" stop-color="#2b1e99"/></linearGradient></defs><title>Iconos_Redes</title><path class="cls-1" d="M148.9,75.17a74.59,74.59,0,1,0-86.24,73.68V96.73H43.71V75.17H62.65V58.74c0-18.69,11.14-29,28.17-29a114.7,114.7,0,0,1,16.7,1.46V49.53H98.12C88.85,49.53,86,55.28,86,61.18v14h20.69l-3.31,21.56H86v52.12A74.61,74.61,0,0,0,148.9,75.17Z"/><path class="cls-2" d="M103.34,96.73l3.31-21.56H86v-14c0-5.9,2.89-11.65,12.16-11.65h9.41V31.18a114.7,114.7,0,0,0-16.7-1.46c-17,0-28.17,10.33-28.17,29V75.17H43.71V96.73H62.65v52.12a75.37,75.37,0,0,0,23.31,0V96.73Z"/></svg>