<svg id="Capa_1" data-name="Capa 1" xmlns="http://www.w3.org/2000/svg" xmlns:xlink="http://www.w3.org/1999/xlink" viewBox="0 0 150 150"><defs><style>.cls-1{fill:url(#Degradado_sin_nombre_4);}.cls-2{fill:#fff;}</style><linearGradient id="Degradado_sin_nombre_4" x1="127.74" y1="22.26" x2="22.26" y2="127.74" gradientUnits="userSpaceOnUse"><stop offset="0" stop-color="#3cf"/><stop offset="1" stop-color="#337fff"/></linearGradient></defs><title>Iconos_Redes</title><circle class="cls-1" cx="75" cy="75" r="74.59"/><path class="cls-2" d="M122.61,47.4a38.9,38.9,0,0,1-9.53,2.72c1.53-.26,3.78-3,4.69-4.16a17.46,17.46,0,0,0,3.16-5.77c.08-.16.14-.37,0-.5a.54.54,0,0,0-.5,0,48.65,48.65,0,0,1-11.3,4.32.76.76,0,0,1-.78-.21,9.22,9.22,0,0,0-1-1,20,20,0,0,0-5.48-3.35,19.06,19.06,0,0,0-8.4-1.35,20.08,20.08,0,0,0-8,2.25,20.53,20.53,0,0,0-6.43,5.25,19.73,19.73,0,0,0-3.84,7.69,20.82,20.82,0,0,0-.2,8.12c.06.45,0,.51-.39.45C59.12,59.59,46.25,54,35.8,42.13c-.45-.52-.7-.52-1.07,0C30.16,49,32.38,60,38.09,65.44c.76.72,1.54,1.44,2.39,2.1A19.8,19.8,0,0,1,33,65.44c-.45-.29-.68-.12-.72.39a11.84,11.84,0,0,0,.12,2.22A19.92,19.92,0,0,0,44.66,83.93a11.58,11.58,0,0,0,2.49.76c-1.5.33-3,.56-7.35.23-.54-.1-.74.16-.54.68C42.5,94.41,49.48,97,54.71,98.53c.7.12,1.4.12,2.1.29,0,.06-.08.06-.12.12-1.73,2.64-7.75,4.61-10.55,5.59a37.77,37.77,0,0,1-16,2c-.86-.13-1-.12-1.28,0s0,.35.25.58c1.09.72,2.2,1.36,3.34,2a52.88,52.88,0,0,0,10.71,4.28c19.24,5.31,40.92,1.41,55.36-12.95,11.35-11.27,15.32-26.82,15.32-42.38,0-.61.72-.95,1.15-1.27A37.44,37.44,0,0,0,122.5,49a2.38,2.38,0,0,0,.5-1.5V47.4C123,47.16,123,47.23,122.61,47.4Z"/></svg>