<svg id="Capa_1" data-name="Capa 1" xmlns="http://www.w3.org/2000/svg" xmlns:xlink="http://www.w3.org/1999/xlink" viewBox="0 0 150 150"><defs><style>.cls-1{fill:url(#Degradado_sin_nombre_10);}.cls-2{fill:#fff;}</style><linearGradient id="Degradado_sin_nombre_10" x1="127.33" y1="21.85" x2="21.85" y2="127.33" gradientUnits="userSpaceOnUse"><stop offset="0" stop-color="#007ab5"/><stop offset="1" stop-color="#0046e5"/></linearGradient></defs><title>Iconos_Redes</title><circle class="cls-1" cx="74.59" cy="74.59" r="74.59"/><path class="cls-2" d="M36.33,58.28H53.77v56H36.33Zm8.72-27.84A10.1,10.1,0,1,1,34.95,40.53,10.1,10.1,0,0,1,45.06,30.44"/><path class="cls-2" d="M64.7,58.28H81.4v7.66h.23c2.33-4.41,8-9,16.49-9,17.63,0,20.88,11.59,20.88,26.68V114.3H101.6V87.06c0-6.5-.13-14.86-9-14.86S82.1,79.28,82.1,86.59V114.3H64.7Z"/></svg>