<svg id="Capa_1" data-name="Capa 1" xmlns="http://www.w3.org/2000/svg" xmlns:xlink="http://www.w3.org/1999/xlink" viewBox="0 0 150 150"><defs><style>.cls-1{fill:url(#Degradado_sin_nombre_7);}.cls-2{fill:#fff;}</style><linearGradient id="Degradado_sin_nombre_7" x1="127.74" y1="22.26" x2="22.26" y2="127.74" gradientUnits="userSpaceOnUse"><stop offset="0" stop-color="red"/><stop offset="1" stop-color="#850000"/></linearGradient></defs><title>Iconos_Redes</title><circle class="cls-1" cx="75" cy="75" r="74.59"/><path class="cls-2" d="M121,62.57A20.57,20.57,0,0,0,100.43,42H47.82A20.57,20.57,0,0,0,27.25,62.57V87.05a20.57,20.57,0,0,0,20.57,20.57h52.61A20.57,20.57,0,0,0,121,87.05ZM90.06,76.65,66.47,88.32c-.92.5-4.07-.17-4.07-1.22v-24c0-1.07,3.17-1.73,4.09-1.21L89.08,74.22C90,74.76,91,76.13,90.06,76.65Z"/></svg>