<svg id="Capa_1" data-name="Capa 1" xmlns="http://www.w3.org/2000/svg" xmlns:xlink="http://www.w3.org/1999/xlink" viewBox="0 0 150 150"><defs><style>.cls-1{fill:url(#Degradado_sin_nombre_3);}.cls-2{fill:#fff;}</style><linearGradient id="Degradado_sin_nombre_3" x1="127.74" y1="22.26" x2="22.26" y2="127.74" gradientUnits="userSpaceOnUse"><stop offset="0" stop-color="#fbe18a"/><stop offset="0.21" stop-color="#fcbb45"/><stop offset="0.38" stop-color="#f75274"/><stop offset="0.52" stop-color="#d53692"/><stop offset="0.74" stop-color="#8f39ce"/><stop offset="1" stop-color="#5b4fe9"/></linearGradient></defs><title>Iconos_Redes</title><circle class="cls-1" cx="75" cy="75" r="74.59"/><circle class="cls-2" cx="98.15" cy="51.91" r="5.13"/><path class="cls-2" d="M75.36,53.36A21.54,21.54,0,1,0,96.9,74.9,21.56,21.56,0,0,0,75.36,53.36Zm0,35.33a13.8,13.8,0,1,1,13.8-13.8A13.81,13.81,0,0,1,75.36,88.69Z"/><path class="cls-2" d="M92.46,118.62H57.54A26.3,26.3,0,0,1,31.27,92.35V57.44A26.3,26.3,0,0,1,57.54,31.17H92.46a26.3,26.3,0,0,1,26.27,26.27V92.35A26.3,26.3,0,0,1,92.46,118.62ZM57.54,39.4a18.06,18.06,0,0,0-18,18V92.35a18.06,18.06,0,0,0,18,18H92.46a18.06,18.06,0,0,0,18-18V57.44a18.06,18.06,0,0,0-18-18Z"/></svg>