<svg id="Capa_1" data-name="Capa 1" xmlns="http://www.w3.org/2000/svg" xmlns:xlink="http://www.w3.org/1999/xlink" viewBox="0 0 150 150"><defs><style>.cls-1{fill:url(#Degradado_sin_nombre_8);}.cls-2,.cls-3{fill:#fff;}.cls-3{fill-rule:evenodd;}</style><linearGradient id="Degradado_sin_nombre_8" x1="127.33" y1="21.85" x2="21.85" y2="127.33" gradientUnits="userSpaceOnUse"><stop offset="0" stop-color="#60fc7c"/><stop offset="1" stop-color="#4ab161"/></linearGradient></defs><title>Iconos_Redes</title><circle class="cls-1" cx="74.59" cy="74.59" r="74.59"/><path class="cls-2" d="M27.11,124l7.25-27.05A50.07,50.07,0,1,1,54.3,116.71Zm28.54-17.42,1.71,1A40.65,40.65,0,1,0,43.46,93.81l1.05,1.72-4,15.1Z"/><path class="cls-3" d="M96.63,79.76c-2.06-1.23-4.73-2.6-7.15-1.61-1.86.76-3,3.67-4.25,5.15a1.78,1.78,0,0,1-2.3.5A32.4,32.4,0,0,1,66.75,69.95,2,2,0,0,1,67,67.24c1.16-1.37,2.62-2.92,2.94-4.77s-.55-4-1.31-5.64c-1-2.1-2.06-5.09-4.17-6.28-1.93-1.09-4.48-.48-6.2.92a12.59,12.59,0,0,0-4.36,10,14.16,14.16,0,0,0,.39,3.16,26.21,26.21,0,0,0,3,7,55.25,55.25,0,0,0,3.17,4.82A48.93,48.93,0,0,0,74.24,89.19a41.6,41.6,0,0,0,8.57,4.08c3.36,1.11,6.35,2.26,10,1.58,3.8-.72,7.54-3.07,9-6.73a5.85,5.85,0,0,0,.42-3.43C101.75,82.31,98.54,80.9,96.63,79.76Z"/></svg>