<svg xmlns="http://www.w3.org/2000/svg" xmlns:xlink="http://www.w3.org/1999/xlink" viewBox="0 0 150 150"><defs><style>.cls-1{isolation:isolate;}.cls-2{fill:url(#Degradado_sin_nombre_15);}.cls-3{fill:#fff;}.cls-4{fill:#d72b27;}.cls-5{fill:#d54b3d;}.cls-6{fill:#e4e5e6;}.cls-6,.cls-7{mix-blend-mode:multiply;}.cls-7{fill:#eff0f0;}</style><linearGradient id="Degradado_sin_nombre_15" x1="127.33" y1="21.85" x2="21.85" y2="127.33" gradientUnits="userSpaceOnUse"><stop offset="0" stop-color="#f2f2f2"/><stop offset="1" stop-color="#ccc"/></linearGradient></defs><title>Iconos_Redes</title><g class="cls-1"><g id="Capa_1" data-name="Capa 1"><circle class="cls-2" cx="74.59" cy="74.59" r="74.59"/><path class="cls-3" d="M116.55,46.43a5.31,5.31,0,0,1-1.84,6.35L75.07,80.91l-.07-.1-.07.1L35.29,52.77a5.31,5.31,0,0,1-1.84-6.35,5.56,5.56,0,0,0-.5,2.29v52.56a5.59,5.59,0,0,0,5.59,5.59h72.91a5.59,5.59,0,0,0,5.59-5.59V48.72A5.56,5.56,0,0,0,116.55,46.43Z"/><path class="cls-4" d="M38.55,43.13A5.59,5.59,0,0,0,33,48.72v52.56a5.59,5.59,0,0,0,5.59,5.59h5V43.13Z"/><path class="cls-5" d="M38.54,106.09a4.82,4.82,0,0,1-4.81-4.81V48.72a4.82,4.82,0,0,1,4.81-4.81H42.8v62.18Z"/><path class="cls-4" d="M111.45,43.13h-5v63.74h5a5.59,5.59,0,0,0,5.59-5.59V48.72A5.59,5.59,0,0,0,111.45,43.13Z"/><path class="cls-5" d="M107.2,106.09V43.91h4.25a4.82,4.82,0,0,1,4.81,4.81v52.56a4.82,4.82,0,0,1-4.81,4.81Z"/><path class="cls-4" d="M116,45.37a5.31,5.31,0,0,0-7.41-1.26L75,67.93,41.44,44.11A5.31,5.31,0,0,0,34,45.37h0a5.31,5.31,0,0,0,1.26,7.41L74.93,80.91l.07-.1.07.1,39.64-28.14A5.31,5.31,0,0,0,116,45.37Z"/><path class="cls-5" d="M75,79.46l-.26.36-39-27.69A4.53,4.53,0,1,1,41,44.75L75,68.89l34-24.14a4.53,4.53,0,0,1,5.25,7.39l-39,27.69Z"/><path class="cls-3" d="M41.44,44.11,75,67.93l33.56-23.82a5.29,5.29,0,0,1,2.94-1h-73A5.29,5.29,0,0,1,41.44,44.11Z"/><path class="cls-6" d="M89.36,106.87h22.1a5.59,5.59,0,0,0,5.59-5.59V48.94h-.12a5.29,5.29,0,0,1-2.21,3.83L75.07,80.91l-.07-.1-.07.1L36.62,53.72Z"/><polygon class="cls-7" points="75.07 80.91 43.58 106.87 43.58 58.66 75.07 80.91"/></g></g></svg>